<?xml version="1.0" encoding="UTF-8" standalone="no"?>
<svg
   xmlns:dc="http://purl.org/dc/elements/1.1/"
   xmlns:cc="http://creativecommons.org/ns#"
   xmlns:rdf="http://www.w3.org/1999/02/22-rdf-syntax-ns#"
   xmlns:svg="http://www.w3.org/2000/svg"
   xmlns="http://www.w3.org/2000/svg"
   xmlns:sodipodi="http://sodipodi.sourceforge.net/DTD/sodipodi-0.dtd"
   xmlns:inkscape="http://www.inkscape.org/namespaces/inkscape"
   width="60mm"
   height="100mm"
   version="1.1"
   viewBox="0 0 60.000002 100"
   id="svg30"
   sodipodi:docname="avatar06.svg"
   inkscape:version="1.0.1 (3bc2e813f5, 2020-09-07)">
  <defs
     id="defs34" />
  <sodipodi:namedview
     pagecolor="#ffffff"
     bordercolor="#666666"
     borderopacity="1"
     objecttolerance="10"
     gridtolerance="10"
     guidetolerance="10"
     inkscape:pageopacity="0"
     inkscape:pageshadow="2"
     inkscape:window-width="1920"
     inkscape:window-height="1018"
     id="namedview32"
     showgrid="false"
     inkscape:zoom="1.4630765"
     inkscape:cx="87.589437"
     inkscape:cy="218.68667"
     inkscape:window-x="-6"
     inkscape:window-y="-6"
     inkscape:window-maximized="1"
     inkscape:current-layer="svg30" />
  <metadata
     id="metadata2">
    <rdf:RDF>
      <cc:Work
         rdf:about="">
        <dc:format>image/svg+xml</dc:format>
        <dc:type
           rdf:resource="http://purl.org/dc/dcmitype/StillImage" />
        <dc:title></dc:title>
      </cc:Work>
    </rdf:RDF>
  </metadata>
  <g
     transform="matrix(0.97883467,0,0,0.97883467,-69.112578,-65.293275)"
     id="g28">
    <g
       transform="matrix(0.26458,0,0,0.26458,-44.928,-75.032)"
       id="g26">
      <path
         d="m 466.8,706.5 c -4.6,24.8 3,51.5 20.1,70.1 17.1,18.5 43.1,28.4 68.1,25.9 8,-24.9 1.1,-55.3 -16.9,-74.3 -18,-19 -46.1,-28.4 -71.3,-21.7 z"
         fill="#7d4200"
         id="path4" />
      <path
         d="m 644.3,706.5 c 4.6,24.8 -3,51.5 -20.1,70.1 -17.1,18.5 -43.1,28.4 -68.1,25.9 -8,-24.9 -1.1,-55.3 16.9,-74.3 17.9,-19 46,-28.4 71.3,-21.7 z"
         fill="#7d4200"
         id="path6" />
      <path
         d="M 636.9,921.2 H 475.2 v -54.1 c 0,-33.1 26.8,-59.9 59.9,-59.9 H 577 c 33.1,0 59.9,26.8 59.9,59.9 z"
         fill="#facb03"
         id="path8" />
      <path
         d="m 577,807.2 h -0.2 c 23.5,8.8 40.3,31.4 40.3,58 v 56 h 19.8 v -54.1 c 0,-33.1 -26.8,-59.9 -59.9,-59.9 z"
         opacity="0.05"
         id="path10" />
      <path
         d="m 575.9,817.9 c -11.7,8.7 -27.8,8.7 -39.6,0 v -70.7 h 39.6 z"
         fill="#e8b894"
         id="path12" />
      <path
         d="m 536.3,795.4 c 11.7,6.8 25.2,11 39.6,11.7 v -59.9 h -39.6 z"
         fill="#d1a685"
         id="path14" />
      <g
         fill="#e8b894"
         id="g20">
        <path
           d="m 642.8,710.3 c -10.7,0 -19.3,-8.6 -19.3,-19.3 v -8.2 c 0,-10.7 8.6,-19.3 19.3,-19.3 10.7,0 19.3,8.6 19.3,19.3 v 8.2 c 0,10.7 -8.6,19.3 -19.3,19.3 z"
           id="path16" />
        <path
           d="M 469.3,710.3 C 458.6,710.3 450,701.7 450,691 v -8.2 c 0,-10.7 8.6,-19.3 19.3,-19.3 10.7,0 19.3,8.6 19.3,19.3 v 8.2 c 0,10.7 -8.6,19.3 -19.3,19.3 z"
           id="path18" />
      </g>
      <path
         d="m 556.1,793.2 c -48.4,0 -87.6,-39.2 -87.6,-87.6 v -37.4 c 0,-48.4 39.2,-87.6 87.6,-87.6 48.4,0 87.6,39.2 87.6,87.6 v 37.4 c -0.1,48.4 -39.3,87.6 -87.6,87.6 z"
         fill="#ffcaa3"
         id="path22" />
      <path
         d="m 598.7,579.9 c -33.9,-21 -81,-18 -111.9,7.3 -17.8,14.6 -29.9,35.1 -38.3,56.5 -7.4,18.9 -12.3,39.4 -9.2,59.5 2.9,18.7 12.4,35.6 21.7,52 7.6,13.3 16.9,24.8 28.5,34.7 V 687 c 0,-1.6 0.5,-3.3 0.5,-5 13,-13.3 32.8,-16.4 51.1,-19.5 18.3,-3.1 38.3,-7.9 49.2,-22.9 3.1,15.1 17.6,26.7 33,26.1 v 128.5 c 15.9,-23 30,-47.1 37.7,-74 7.7,-26.9 8.6,-56.3 -1.1,-82.6 -9.6,-26.2 -37.4,-42.9 -61.2,-57.7 z"
         fill="#a05400"
         id="path24" />
    </g>
  </g>
</svg>
