<?xml version="1.0" encoding="UTF-8" standalone="no"?>
<svg
   xmlns:dc="http://purl.org/dc/elements/1.1/"
   xmlns:cc="http://creativecommons.org/ns#"
   xmlns:rdf="http://www.w3.org/1999/02/22-rdf-syntax-ns#"
   xmlns:svg="http://www.w3.org/2000/svg"
   xmlns="http://www.w3.org/2000/svg"
   xmlns:sodipodi="http://sodipodi.sourceforge.net/DTD/sodipodi-0.dtd"
   xmlns:inkscape="http://www.inkscape.org/namespaces/inkscape"
   width="60mm"
   height="100mm"
   version="1.1"
   viewBox="0 0 60 100"
   id="svg30"
   sodipodi:docname="avatar05.svg"
   inkscape:version="1.0.1 (3bc2e813f5, 2020-09-07)">
  <defs
     id="defs34" />
  <sodipodi:namedview
     pagecolor="#ffffff"
     bordercolor="#666666"
     borderopacity="1"
     objecttolerance="10"
     gridtolerance="10"
     guidetolerance="10"
     inkscape:pageopacity="0"
     inkscape:pageshadow="2"
     inkscape:window-width="1920"
     inkscape:window-height="1018"
     id="namedview32"
     showgrid="false"
     inkscape:zoom="1.5259072"
     inkscape:cx="119.3074"
     inkscape:cy="184.04374"
     inkscape:window-x="-6"
     inkscape:window-y="-6"
     inkscape:window-maximized="1"
     inkscape:current-layer="svg30" />
  <metadata
     id="metadata2">
    <rdf:RDF>
      <cc:Work
         rdf:about="">
        <dc:format>image/svg+xml</dc:format>
        <dc:type
           rdf:resource="http://purl.org/dc/dcmitype/StillImage" />
        <dc:title></dc:title>
      </cc:Work>
    </rdf:RDF>
  </metadata>
  <g
     transform="translate(-78.772241,-91.716535)"
     id="g28">
    <g
       transform="matrix(0.26458,0,0,0.26458,40.887,-52.021)"
       id="g26">
      <path
         d="m 170.4,622.5 c -17.9,28.5 -22.7,64.1 -16.7,97.2 6,33.1 22,63.8 42.7,90.4 18.2,-4.8 37.7,-0.5 51.7,12.1 11.7,-5.6 15,-19.2 16.1,-32.1 1.5,-17.3 3,-34.9 -0.3,-52 -4.8,-25.1 -19.5,-47.1 -35.3,-67.2 -15.9,-20.4 -33.8,-40 -58.2,-48.4 z"
         fill="#cc8f00"
         id="path4" />
      <path
         d="m 344.2,622.5 c 17.9,28.5 22.7,64.1 16.7,97.2 -6,33.1 -22,63.8 -42.7,90.4 -18.2,-4.8 -37.7,-0.5 -51.7,12.1 -11.7,-5.6 -15,-19.2 -16.1,-32.1 -1.5,-17.3 -3,-34.9 0.3,-52 4.8,-25.1 19.5,-47.1 35.3,-67.2 15.9,-20.4 33.8,-40 58.2,-48.4 z"
         fill="#cc8f00"
         id="path6" />
      <path
         d="M 338.2,921.2 H 176.4 v -54.1 c 0,-33.1 26.8,-59.9 59.9,-59.9 h 41.9 c 33.1,0 59.9,26.8 59.9,59.9 v 54.1 z"
         fill="#176bea"
         id="path8" />
      <path
         d="M 278.2,807.2 H 278 c 23.5,8.8 40.3,31.4 40.3,58 v 56 h 19.8 v -54.1 c 0.1,-33.1 -26.8,-59.9 -59.9,-59.9 z"
         opacity="0.05"
         id="path10" />
      <path
         d="m 277.1,817.9 c -11.7,8.7 -27.8,8.7 -39.6,0 v -70.7 h 39.6 z"
         fill="#e8b894"
         id="path12" />
      <path
         d="m 237.5,795.4 c 11.7,6.8 25.2,11 39.6,11.7 v -59.9 h -39.6 z"
         fill="#d1a685"
         id="path14" />
      <g
         fill="#e8b894"
         id="g20">
        <path
           d="m 344,710.3 c -10.7,0 -19.3,-8.6 -19.3,-19.3 v -8.2 c 0,-10.7 8.6,-19.3 19.3,-19.3 10.7,0 19.3,8.6 19.3,19.3 v 8.2 c 0,10.7 -8.6,19.3 -19.3,19.3 z"
           id="path16" />
        <path
           d="m 170.5,710.3 c -10.7,0 -19.3,-8.6 -19.3,-19.3 v -8.2 c 0,-10.7 8.6,-19.3 19.3,-19.3 10.7,0 19.3,8.6 19.3,19.3 v 8.2 c 0,10.7 -8.6,19.3 -19.3,19.3 z"
           id="path18" />
      </g>
      <path
         d="m 257.3,793.2 c -48.4,0 -87.6,-39.2 -87.6,-87.6 v -37.4 c 0,-48.4 39.2,-87.6 87.6,-87.6 48.4,0 87.6,39.2 87.6,87.6 v 37.4 c -0.1,48.4 -39.3,87.6 -87.6,87.6 z"
         fill="#ffcaa3"
         id="path22" />
      <path
         d="m 364.2,664.6 c -5.1,-26 -19.1,-50.9 -41.3,-66.9 -18.5,-13.3 -43.2,-19.8 -66,-16 -22.7,-3.8 -47.4,2.7 -66,16 -22.2,15.9 -36.2,40.8 -41.3,66.9 -5.1,26 1.3,51.3 9.1,76.7 27.6,-13.3 47.4,-39.6 49.8,-69 h 96.9 c 2.4,29.5 22.1,55.7 49.8,69 7.6,-25.4 14.1,-50.7 9,-76.7 z"
         fill="#f9ae00"
         id="path24" />
    </g>
  </g>
</svg>
