<?xml version="1.0" encoding="UTF-8" standalone="no"?>
<svg
   xmlns:dc="http://purl.org/dc/elements/1.1/"
   xmlns:cc="http://creativecommons.org/ns#"
   xmlns:rdf="http://www.w3.org/1999/02/22-rdf-syntax-ns#"
   xmlns:svg="http://www.w3.org/2000/svg"
   xmlns="http://www.w3.org/2000/svg"
   xmlns:sodipodi="http://sodipodi.sourceforge.net/DTD/sodipodi-0.dtd"
   xmlns:inkscape="http://www.inkscape.org/namespaces/inkscape"
   width="60mm"
   height="100mm"
   version="1.1"
   viewBox="0 0 59.999999 99.999999"
   id="svg122"
   sodipodi:docname="avatar01.svg"
   inkscape:version="1.0.1 (3bc2e813f5, 2020-09-07)">
  <defs
     id="defs126" />
  <sodipodi:namedview
     pagecolor="#ffffff"
     bordercolor="#666666"
     borderopacity="1"
     objecttolerance="10"
     gridtolerance="10"
     guidetolerance="10"
     inkscape:pageopacity="0"
     inkscape:pageshadow="2"
     inkscape:window-width="1326"
     inkscape:window-height="842"
     id="namedview124"
     showgrid="false"
     inkscape:zoom="0.95355863"
     inkscape:cx="-29.055972"
     inkscape:cy="183.02338"
     inkscape:window-x="262"
     inkscape:window-y="44"
     inkscape:window-maximized="0"
     inkscape:current-layer="svg122" />
  <metadata
     id="metadata96">
    <rdf:RDF>
      <cc:Work
         rdf:about="">
        <dc:format>image/svg+xml</dc:format>
        <dc:type
           rdf:resource="http://purl.org/dc/dcmitype/StillImage" />
        <dc:title></dc:title>
      </cc:Work>
    </rdf:RDF>
  </metadata>
  <g
     transform="translate(-75.113,-91.89)"
     id="g120">
    <g
       transform="matrix(0.26458,0,0,0.26458,37.992,65.881)"
       id="g118">
      <path
         d="M 366.8,348.3 H 140.3 V 211.5 C 140.3,149 191,98.3 253.5,98.3 316,98.3 366.7,149 366.7,211.5 v 136.8 z"
         fill="#564300"
         id="path98" />
      <path
         d="M 338.2,483.7 H 176.4 v -54.1 c 0,-33.1 26.8,-59.9 59.9,-59.9 h 41.9 c 33.1,0 59.9,26.8 59.9,59.9 v 54.1 z"
         fill="#e37c62"
         id="path100" />
      <path
         d="M 278.2,369.7 H 278 c 23.5,8.8 40.3,31.4 40.3,58 v 56 h 19.8 v -54.1 c 0.1,-33.1 -26.8,-59.9 -59.9,-59.9 z"
         opacity="0.05"
         id="path102" />
      <path
         d="m 277.1,380.4 c -11.7,8.7 -27.8,8.7 -39.6,0 v -70.7 h 39.6 z"
         fill="#e8b894"
         id="path104" />
      <path
         d="m 237.5,357.9 c 11.7,6.8 25.2,11 39.6,11.7 v -59.9 h -39.6 z"
         fill="#d1a685"
         id="path106" />
      <g
         fill="#e8b894"
         id="g112">
        <path
           d="m 344,272.8 c -10.7,0 -19.3,-8.6 -19.3,-19.3 v -8.2 c 0,-10.7 8.6,-19.3 19.3,-19.3 10.7,0 19.3,8.6 19.3,19.3 v 8.2 c 0,10.7 -8.6,19.3 -19.3,19.3 z"
           id="path108" />
        <path
           d="m 170.5,272.8 c -10.7,0 -19.3,-8.6 -19.3,-19.3 v -8.2 c 0,-10.7 8.6,-19.3 19.3,-19.3 10.7,0 19.3,8.6 19.3,19.3 v 8.2 c 0,10.7 -8.6,19.3 -19.3,19.3 z"
           id="path110" />
      </g>
      <path
         d="m 257.3,355.7 c -48.4,0 -87.6,-39.2 -87.6,-87.6 v -37.4 c 0,-48.4 39.2,-87.6 87.6,-87.6 48.4,0 87.6,39.2 87.6,87.6 v 37.4 c -0.1,48.4 -39.3,87.6 -87.6,87.6 z"
         fill="#ffcaa3"
         id="path114" />
      <path
         d="M 366.7,264.4 C 337,266.9 306.6,260.7 280.3,246.9 254,233 231.5,212.4 217.2,186.7 c -6.1,31.6 -29.5,59.5 -60.1,71.2 -3.3,-0.7 -6.7,-1.6 -9.9,-2.3 4.7,-28.5 7.5,-59.7 21.3,-85.2 13.8,-25.5 36.6,-47.6 65.2,-54.5 15.2,-3.7 31.2,-2.9 46.5,0.1 19.4,3.9 38.4,11.8 52.7,25.2 16.1,15.1 25.2,36.3 29.4,57.8 4,21.5 4.8,43.6 4.4,65.4 z"
         fill="#564300"
         id="path116" />
    </g>
  </g>
</svg>
