<?xml version="1.0" encoding="UTF-8" standalone="no"?>
<svg
   xmlns:dc="http://purl.org/dc/elements/1.1/"
   xmlns:cc="http://creativecommons.org/ns#"
   xmlns:rdf="http://www.w3.org/1999/02/22-rdf-syntax-ns#"
   xmlns:svg="http://www.w3.org/2000/svg"
   xmlns="http://www.w3.org/2000/svg"
   xmlns:sodipodi="http://sodipodi.sourceforge.net/DTD/sodipodi-0.dtd"
   xmlns:inkscape="http://www.inkscape.org/namespaces/inkscape"
   width="60mm"
   height="100mm"
   version="1.1"
   viewBox="0 0 60 100"
   id="svg194"
   sodipodi:docname="avatar02.svg"
   inkscape:version="1.0.1 (3bc2e813f5, 2020-09-07)">
  <defs
     id="defs198" />
  <sodipodi:namedview
     pagecolor="#ffffff"
     bordercolor="#666666"
     borderopacity="1"
     objecttolerance="10"
     gridtolerance="10"
     guidetolerance="10"
     inkscape:pageopacity="0"
     inkscape:pageshadow="2"
     inkscape:window-width="1388"
     inkscape:window-height="879"
     id="namedview196"
     showgrid="false"
     inkscape:zoom="5.5877435"
     inkscape:cx="128.38402"
     inkscape:cy="364.5024"
     inkscape:window-x="0"
     inkscape:window-y="0"
     inkscape:window-maximized="0"
     inkscape:current-layer="svg194"
     inkscape:document-rotation="0" />
  <metadata
     id="metadata164">
    <rdf:RDF>
      <cc:Work
         rdf:about="">
        <dc:format>image/svg+xml</dc:format>
        <dc:type
           rdf:resource="http://purl.org/dc/dcmitype/StillImage" />
        <dc:title />
      </cc:Work>
    </rdf:RDF>
  </metadata>
  <g
     transform="translate(-74.702,-89.812968)"
     id="g192">
    <g
       transform="matrix(0.26458,0,0,0.26458,-42.044,61.847)"
       id="g190">
      <path
         d="M 636.9,483.7 H 475.2 v -54.1 c 0,-33.1 26.8,-59.9 59.9,-59.9 H 577 c 33.1,0 59.9,26.8 59.9,59.9 z"
         fill="#0d4dfa"
         id="path166" />
      <path
         d="m 577,369.7 h -0.2 c 23.5,8.8 40.3,31.4 40.3,58 v 56 h 19.8 v -54.1 c 0,-33.1 -26.8,-59.9 -59.9,-59.9 z"
         opacity="0.05"
         id="path168" />
      <path
         d="m 575.9,380.4 c -11.7,8.7 -27.8,8.7 -39.6,0 v -70.7 h 39.6 z"
         fill="#e8b894"
         id="path170" />
      <path
         d="m 536.3,357.9 c 11.7,6.8 25.2,11 39.6,11.7 v -59.9 h -39.6 z"
         fill="#d1a685"
         id="path172" />
      <g
         fill="#e8b894"
         id="g178">
        <path
           d="m 642.8,272.8 c -10.7,0 -19.3,-8.6 -19.3,-19.3 v -8.2 c 0,-10.7 8.6,-19.3 19.3,-19.3 10.7,0 19.3,8.6 19.3,19.3 v 8.2 c 0,10.7 -8.6,19.3 -19.3,19.3 z"
           id="path174" />
        <path
           d="m 469.3,272.8 c -10.7,0 -19.3,-8.6 -19.3,-19.3 v -8.2 c 0,-10.7 8.6,-19.3 19.3,-19.3 10.7,0 19.3,8.6 19.3,19.3 v 8.2 c 0,10.7 -8.6,19.3 -19.3,19.3 z"
           id="path176" />
      </g>
      <path
         d="m 556.1,355.7 c -48.4,0 -87.6,-39.2 -87.6,-87.6 v -37.4 c 0,-48.4 39.2,-87.6 87.6,-87.6 48.4,0 87.6,39.2 87.6,87.6 v 37.4 c -0.1,48.4 -39.3,87.6 -87.6,87.6 z"
         fill="#ffcaa3"
         id="path180" />
      <g
         fill="#663300"
         id="g188">
        <path
           d="m 619.9,288.5 c -3.9,8.3 -15.2,10.3 -23.9,7.6 -8.7,-2.7 -16,-8.8 -24,-13.1 -3.5,-1.9 -7.5,-3.4 -11.5,-4.1 -1.4,-0.3 -2.9,-0.4 -4.4,-0.4 -1.5,0 -3,0.1 -4.4,0.4 -4,0.7 -8,2.2 -11.5,4.1 -8.1,4.3 -15.3,10.4 -24,13.1 -8.7,2.7 -20,0.7 -23.9,-7.6 -1.9,9.9 3.1,17.8 12.1,22.2 9,4.5 19.9,3.9 29.4,0.6 8.4,-2.9 16.1,-8.4 22.4,-15.2 6.2,6.8 14,12.3 22.4,15.2 9.5,3.3 20.4,3.9 29.4,-0.6 8.9,-4.4 13.9,-12.3 11.9,-22.2 z"
           id="path182" />
        <path
           d="m 556.1,355.7 c 48.4,0 87.6,-39.2 87.6,-87.6 v -37.4 c 0,-2.1 -0.1,-4.1 -0.2,-6.2 -6.5,18.9 -6.1,39.8 -12.7,58.8 -7.6,21.8 -24.7,40 -45.9,49 -4.7,2 -9.6,3.5 -14.7,3.6 -5.1,0 -10.3,-1.6 -13.8,-5.2 0,0.7 -0.2,1.3 -0.2,2 0,-0.7 -0.2,-1.3 -0.2,-2 -3.6,3.6 -8.8,5.2 -13.8,5.2 -5.1,0 -10,-1.6 -14.7,-3.6 -21.3,-8.9 -38.4,-27.2 -45.9,-49 -6.6,-19 -6.1,-39.8 -12.7,-58.8 -0.1,2 -0.2,4.1 -0.2,6.2 v 37.4 c -0.2,48.4 39,87.6 87.4,87.6 z"
           id="path184" />
        <path
           d="m 641.4,270.8 c -1.6,-14.1 -3.3,-28.3 -7.9,-41.8 -4.6,-13.4 -12.3,-26.2 -24,-34.3 2.7,5.4 3.3,11.7 3.6,17.7 -5,-8.2 -15,-12.3 -24.6,-12.8 -9.6,-0.5 -19.1,2 -28.4,4.3 -9.3,2.3 -19,4.4 -28.5,3 -10.7,-1.6 -20.4,-5.8 -29.6,-11.4 2.7,8.7 -1.2,18.1 -6.6,25.4 -5.4,7.3 -12.4,13.4 -17.2,21.1 -4.9,7.7 -7.3,17.9 -2.9,25.8 -9.2,-9.6 -15.7,-21.1 -18.2,-34.1 -2.4,-13 -2.2,-26.4 -1.6,-39.7 0.4,-9 1.1,-18.2 5.1,-26.2 4,-8 12.2,-14.6 21.1,-14.1 1.3,-6.8 5.5,-14.2 11,-18.5 5.4,-4.3 11.8,-7.1 18.2,-9.7 20.9,-8.5 43.3,-14.9 65.8,-13.7 22.6,1.2 45.5,10.8 58.7,29.1 9.6,13.3 13.3,29.8 15,46.1 3.3,30.2 0.6,55.2 -9,83.8 z"
           id="path186" />
      </g>
    </g>
  </g>
</svg>
