<?xml version="1.0" encoding="UTF-8" standalone="no"?>
<svg
   xmlns:dc="http://purl.org/dc/elements/1.1/"
   xmlns:cc="http://creativecommons.org/ns#"
   xmlns:rdf="http://www.w3.org/1999/02/22-rdf-syntax-ns#"
   xmlns:svg="http://www.w3.org/2000/svg"
   xmlns="http://www.w3.org/2000/svg"
   xmlns:sodipodi="http://sodipodi.sourceforge.net/DTD/sodipodi-0.dtd"
   xmlns:inkscape="http://www.inkscape.org/namespaces/inkscape"
   width="60mm"
   height="100mm"
   version="1.1"
   viewBox="0 0 60 99.999998"
   id="svg30"
   sodipodi:docname="avatar04.svg"
   inkscape:version="1.0.1 (3bc2e813f5, 2020-09-07)">
  <defs
     id="defs34" />
  <sodipodi:namedview
     pagecolor="#ffffff"
     bordercolor="#666666"
     borderopacity="1"
     objecttolerance="10"
     gridtolerance="10"
     guidetolerance="10"
     inkscape:pageopacity="0"
     inkscape:pageshadow="2"
     inkscape:window-width="1103"
     inkscape:window-height="744"
     id="namedview32"
     showgrid="false"
     inkscape:zoom="1.3480068"
     inkscape:cx="93.903013"
     inkscape:cy="196.23134"
     inkscape:window-x="363"
     inkscape:window-y="97"
     inkscape:window-maximized="0"
     inkscape:current-layer="svg30" />
  <metadata
     id="metadata2">
    <rdf:RDF>
      <cc:Work
         rdf:about="">
        <dc:format>image/svg+xml</dc:format>
        <dc:type
           rdf:resource="http://purl.org/dc/dcmitype/StillImage" />
        <dc:title></dc:title>
      </cc:Work>
    </rdf:RDF>
  </metadata>
  <g
     transform="translate(-70.716502,-83.161446)"
     id="g28">
    <g
       transform="matrix(0.26458,0,0,0.26458,-204.69,57.587)"
       id="g26">
      <path
         d="m 1129.3,127.4 c -1.6,-11.8 5.9,-24.3 17.1,-28 6.1,-2 12.9,-1.5 19,0.7 5.3,1.9 10.3,5.2 12.9,10.1 3,5.6 2.6,12.5 1.3,18.7 -2.6,12.3 -11.9,25.6 -26.4,23.4 -11.6,-1.7 -22.4,-13.6 -23.9,-24.9 z"
         fill="#383838"
         id="path4" />
      <path
         d="m 1234.5,483.7 h -161.7 v -54.1 c 0,-33.1 26.8,-59.9 59.9,-59.9 h 41.9 c 33.1,0 59.9,26.8 59.9,59.9 z"
         fill="#0072ac"
         id="path6" />
      <path
         d="m 1174.6,369.7 h -0.2 c 23.5,8.8 40.3,31.4 40.3,58 v 56 h 19.8 v -54.1 c 0,-33.1 -26.8,-59.9 -59.9,-59.9 z"
         opacity="0.05"
         id="path8" />
      <path
         d="m 1173.4,380.4 c -11.7,8.7 -27.8,8.7 -39.6,0 v -70.7 h 39.6 z"
         fill="#e8b894"
         id="path10" />
      <path
         d="m 1133.9,357.9 c 11.7,6.8 25.2,11 39.6,11.7 v -59.9 h -39.6 z"
         fill="#d1a685"
         id="path12" />
      <g
         fill="#e8b894"
         id="g18">
        <path
           d="m 1240.4,272.8 c -10.7,0 -19.3,-8.6 -19.3,-19.3 v -8.2 c 0,-10.7 8.6,-19.3 19.3,-19.3 10.7,0 19.3,8.6 19.3,19.3 v 8.2 c 0,10.7 -8.7,19.3 -19.3,19.3 z"
           id="path14" />
        <path
           d="m 1066.9,272.8 c -10.7,0 -19.3,-8.6 -19.3,-19.3 v -8.2 c 0,-10.7 8.6,-19.3 19.3,-19.3 10.7,0 19.3,8.6 19.3,19.3 v 8.2 c 0,10.7 -8.7,19.3 -19.3,19.3 z"
           id="path16" />
      </g>
      <path
         d="m 1153.6,355.7 c -48.4,0 -87.6,-39.2 -87.6,-87.6 v -37.4 c 0,-48.4 39.2,-87.6 87.6,-87.6 48.4,0 87.6,39.2 87.6,87.6 v 37.4 c 0,48.4 -39.2,87.6 -87.6,87.6 z"
         fill="#ffcaa3"
         id="path20" />
      <path
         d="m 1154,143.2 h -0.4 -0.4 c -48.2,0.2 -87.2,39.3 -87.2,87.5 v 30.6 c 1.5,-0.1 2.9,-0.1 4.4,-0.2 0.9,-12.6 1.7,-25.7 5.7,-37.6 4,-12 11.3,-23.3 22.3,-29.4 16,-9 36.7,-4.9 55.2,-6 18.5,1.2 39.1,-2.9 55.2,6 11,6.1 18.3,17.5 22.3,29.4 4,12 4.8,25.1 5.7,37.6 1.5,0.1 2.9,0.1 4.4,0.2 v -30.6 c 0,-48.2 -39,-87.3 -87.2,-87.5 z"
         fill="#cca282"
         id="path22" />
      <path
         d="m 1199.6,152.5 c -2.8,-4.9 -7.8,-8.3 -13.2,-10.8 -10,-4.6 -21.6,-6.4 -32.7,-5.1 -11.1,-1.3 -22.7,0.5 -32.7,5.1 -5.4,2.5 -10.4,5.9 -13.2,10.8 -3.2,5.6 -2.9,12.4 -1.3,18.6 1.6,6.5 4.6,12.9 10,17.4 5.2,4.3 12.2,6.3 19.2,7 6,0.5 12.1,0.1 18.1,-0.5 6,0.6 12.1,1.1 18.1,0.5 7,-0.6 14,-2.7 19.2,-7 5.4,-4.4 8.4,-10.9 10,-17.4 1.4,-6.2 1.7,-13 -1.5,-18.6 z"
         fill="#575757"
         id="path24" />
    </g>
  </g>
</svg>
