<?xml version="1.0" encoding="UTF-8" standalone="no"?>
<svg
   xmlns:dc="http://purl.org/dc/elements/1.1/"
   xmlns:cc="http://creativecommons.org/ns#"
   xmlns:rdf="http://www.w3.org/1999/02/22-rdf-syntax-ns#"
   xmlns:svg="http://www.w3.org/2000/svg"
   xmlns="http://www.w3.org/2000/svg"
   xmlns:sodipodi="http://sodipodi.sourceforge.net/DTD/sodipodi-0.dtd"
   xmlns:inkscape="http://www.inkscape.org/namespaces/inkscape"
   width="60mm"
   height="100mm"
   version="1.1"
   viewBox="0 0 60 99.999999"
   id="svg28"
   sodipodi:docname="avatar03.svg"
   inkscape:version="1.0.1 (3bc2e813f5, 2020-09-07)">
  <defs
     id="defs32" />
  <sodipodi:namedview
     pagecolor="#ffffff"
     bordercolor="#666666"
     borderopacity="1"
     objecttolerance="10"
     gridtolerance="10"
     guidetolerance="10"
     inkscape:pageopacity="0"
     inkscape:pageshadow="2"
     inkscape:window-width="1920"
     inkscape:window-height="1018"
     id="namedview30"
     showgrid="false"
     inkscape:zoom="1.730149"
     inkscape:cx="106.04976"
     inkscape:cy="212.40945"
     inkscape:window-x="-6"
     inkscape:window-y="-6"
     inkscape:window-maximized="1"
     inkscape:current-layer="svg28" />
  <metadata
     id="metadata2">
    <rdf:RDF>
      <cc:Work
         rdf:about="">
        <dc:format>image/svg+xml</dc:format>
        <dc:type
           rdf:resource="http://purl.org/dc/dcmitype/StillImage" />
        <dc:title></dc:title>
      </cc:Work>
    </rdf:RDF>
  </metadata>
  <g
     transform="matrix(0.86257816,0,0,0.86257816,-57.210487,-70.402971)"
     id="g26">
    <g
       transform="matrix(0.26458,0,0,0.26458,-124.88,69.582)"
       id="g24">
      <path
         d="m 836.5,156.6 c 18.1,11.6 43.3,10.6 60.5,-2.3 17.1,-12.9 25,-36.9 18.9,-57.5 C 909.8,76.2 890,60.5 868.6,59 c -21.4,-1.4 -43.1,11.6 -51.9,31.1 -6.1,13.4 -6,29.9 1.8,42.4 6.2,9.9 8.1,17.7 18,24.1 z"
         fill="#4f2800"
         id="path4" />
      <path
         d="M 935.7,483.7 H 774 v -54.1 c 0,-33.1 26.8,-59.9 59.9,-59.9 h 41.9 c 33.1,0 59.9,26.8 59.9,59.9 z"
         fill="#fab802"
         id="path6" />
      <path
         d="m 875.8,369.7 h -0.2 c 23.5,8.8 40.3,31.4 40.3,58 v 56 h 19.8 v -54.1 c 0,-33.1 -26.8,-59.9 -59.9,-59.9 z"
         opacity="0.05"
         id="path8" />
      <path
         d="m 874.6,380.4 c -11.7,8.7 -27.8,8.7 -39.6,0 v -70.7 h 39.6 z"
         fill="#e8b894"
         id="path10" />
      <path
         d="m 835.1,357.9 c 11.7,6.8 25.2,11 39.6,11.7 v -59.9 h -39.6 z"
         fill="#d1a685"
         id="path12" />
      <g
         fill="#e8b894"
         id="g18">
        <path
           d="m 941.6,272.8 c -10.7,0 -19.3,-8.6 -19.3,-19.3 v -8.2 c 0,-10.7 8.6,-19.3 19.3,-19.3 10.7,0 19.3,8.6 19.3,19.3 v 8.2 c 0,10.7 -8.6,19.3 -19.3,19.3 z"
           id="path14" />
        <path
           d="m 768.1,272.8 c -10.7,0 -19.3,-8.6 -19.3,-19.3 v -8.2 c 0,-10.7 8.6,-19.3 19.3,-19.3 10.7,0 19.3,8.6 19.3,19.3 v 8.2 c 0,10.7 -8.6,19.3 -19.3,19.3 z"
           id="path16" />
      </g>
      <path
         d="m 854.9,355.7 c -48.4,0 -87.6,-39.2 -87.6,-87.6 v -37.4 c 0,-48.4 39.2,-87.6 87.6,-87.6 48.4,0 87.6,39.2 87.6,87.6 v 37.4 c -0.1,48.4 -39.3,87.6 -87.6,87.6 z"
         fill="#ffcaa3"
         id="path20" />
      <path
         d="m 941.6,279 c 3.7,-11 -0.1,-23.4 -6.4,-33.1 -6.3,-9.6 -14.9,-17.4 -22.3,-26.1 -7.4,-8.8 -14.3,-19.2 -14.6,-30.8 -6.1,21.6 -27.4,34.6 -48.1,41 -20.7,6.4 -42.9,8.5 -62.1,18.7 -6.1,3.3 -12,7.4 -16,13.2 -4.1,5.8 -6.2,13.4 -4.4,20.3 -7.7,-28.8 -13,-60.4 -6.4,-89.5 6.5,-29.1 23.8,-56.4 49.4,-69.9 32.3,-17 72.8,-9.3 102.7,11.8 14.7,10.4 30.6,18.9 37.4,36.1 6.8,17.2 7.7,36.4 5.3,54.8 -2.4,18.4 -9,35.8 -14.5,53.5 z"
         fill="#663300"
         id="path22" />
    </g>
  </g>
</svg>
