<?xml version="1.0" encoding="UTF-8" standalone="no"?>
<svg
   xmlns:dc="http://purl.org/dc/elements/1.1/"
   xmlns:cc="http://creativecommons.org/ns#"
   xmlns:rdf="http://www.w3.org/1999/02/22-rdf-syntax-ns#"
   xmlns:svg="http://www.w3.org/2000/svg"
   xmlns="http://www.w3.org/2000/svg"
   xmlns:sodipodi="http://sodipodi.sourceforge.net/DTD/sodipodi-0.dtd"
   xmlns:inkscape="http://www.inkscape.org/namespaces/inkscape"
   width="60mm"
   height="100mm"
   version="1.1"
   viewBox="0 0 60 99.999999"
   id="svg32"
   sodipodi:docname="avatar07.svg"
   inkscape:version="1.0.1 (3bc2e813f5, 2020-09-07)">
  <defs
     id="defs36" />
  <sodipodi:namedview
     pagecolor="#ffffff"
     bordercolor="#666666"
     borderopacity="1"
     objecttolerance="10"
     gridtolerance="10"
     guidetolerance="10"
     inkscape:pageopacity="0"
     inkscape:pageshadow="2"
     inkscape:window-width="1920"
     inkscape:window-height="1018"
     id="namedview34"
     showgrid="false"
     inkscape:zoom="2.0405312"
     inkscape:cx="120"
     inkscape:cy="219.30564"
     inkscape:window-x="-6"
     inkscape:window-y="-6"
     inkscape:window-maximized="1"
     inkscape:current-layer="svg32" />
  <metadata
     id="metadata2">
    <rdf:RDF>
      <cc:Work
         rdf:about="">
        <dc:format>image/svg+xml</dc:format>
        <dc:type
           rdf:resource="http://purl.org/dc/dcmitype/StillImage" />
        <dc:title></dc:title>
      </cc:Work>
    </rdf:RDF>
  </metadata>
  <g
     transform="matrix(0.94282463,0,0,0.94282463,-58.637908,-68.26143)"
     id="g30">
    <g
       transform="matrix(0.26458,0,0,0.26458,-131.96,-65.303)"
       id="g28">
      <g
         fill="#3d1d00"
         id="g8">
        <path
           d="m 780.3,653.4 c -12.8,13.4 -19,32.1 -20.3,50.6 -1.2,18.5 2.1,37 6.2,55.1 1.3,5.6 2.6,11.2 2.6,16.9 0,5.7 -1.6,11.6 -5.5,15.8 6.9,-2.1 12.3,-6.3 17.1,-11.7 -3.6,11.4 -3.1,24.1 1.2,35.3 1.5,-7.4 5,-14.3 10,-20 -1.3,10.7 3.3,21.5 10.1,29.9 6.8,8.4 15.6,14.9 24.3,21.2 8.2,5.9 22.1,-4.5 29.4,-11.5 7.3,-7 11.5,-16.8 13.2,-26.8 1.8,-10 1.3,-20.2 0.3,-30.3 -2.7,-29 -8.9,-57.5 -15.2,-86 -3,-13.8 -6.9,-29 -18.7,-36.8 -6.9,-4.7 -15.7,-6 -24,-5.3 -8.1,0.8 -25,-2.4 -30.7,3.6 z"
           id="path4" />
        <path
           d="m 929.4,653.4 c 12.8,13.4 19,32.1 20.3,50.6 1.3,18.5 -2.1,37 -6.2,55.1 -1.3,5.6 -2.6,11.2 -2.6,16.9 0,5.7 1.6,11.6 5.5,15.8 -6.9,-2.1 -12.3,-6.3 -17.1,-11.7 3.6,11.4 3.1,24.1 -1.2,35.3 -1.5,-7.4 -5,-14.3 -10,-20 1.3,10.7 -3.3,21.5 -10.1,29.9 -6.8,8.4 -15.6,14.9 -24.3,21.2 -8.2,5.9 -22.1,-4.5 -29.4,-11.5 -7.3,-7 -11.5,-16.8 -13.2,-26.8 -1.8,-10 -1.3,-20.2 -0.3,-30.3 2.7,-29 8.9,-57.5 15.2,-86 3,-13.8 6.9,-29 18.7,-36.8 6.9,-4.7 15.7,-6 24,-5.3 8.1,0.8 25,-2.4 30.7,3.6 z"
           id="path6" />
      </g>
      <path
         d="M 935.7,921.2 H 774 v -54.1 c 0,-33.1 26.8,-59.9 59.9,-59.9 h 41.9 c 33.1,0 59.9,26.8 59.9,59.9 z"
         fill="#459cc8"
         id="path10" />
      <path
         d="m 875.8,807.2 h -0.2 c 23.5,8.8 40.3,31.4 40.3,58 v 56 h 19.8 v -54.1 c 0,-33.1 -26.8,-59.9 -59.9,-59.9 z"
         opacity="0.05"
         id="path12" />
      <path
         d="m 874.6,817.9 c -11.7,8.7 -27.8,8.7 -39.6,0 v -70.7 h 39.6 z"
         fill="#e8b894"
         id="path14" />
      <path
         d="m 835.1,795.4 c 11.7,6.8 25.2,11 39.6,11.7 v -59.9 h -39.6 z"
         fill="#d1a685"
         id="path16" />
      <g
         fill="#e8b894"
         id="g22">
        <path
           d="m 941.6,710.3 c -10.7,0 -19.3,-8.6 -19.3,-19.3 v -8.2 c 0,-10.7 8.6,-19.3 19.3,-19.3 10.7,0 19.3,8.6 19.3,19.3 v 8.2 c 0,10.7 -8.6,19.3 -19.3,19.3 z"
           id="path18" />
        <path
           d="m 768.1,710.3 c -10.7,0 -19.3,-8.6 -19.3,-19.3 v -8.2 c 0,-10.7 8.6,-19.3 19.3,-19.3 10.7,0 19.3,8.6 19.3,19.3 v 8.2 c 0,10.7 -8.6,19.3 -19.3,19.3 z"
           id="path20" />
      </g>
      <path
         d="m 854.9,793.2 c -48.4,0 -87.6,-39.2 -87.6,-87.6 v -37.4 c 0,-48.4 39.2,-87.6 87.6,-87.6 48.4,0 87.6,39.2 87.6,87.6 v 37.4 c -0.1,48.4 -39.3,87.6 -87.6,87.6 z"
         fill="#ffcaa3"
         id="path24" />
      <path
         d="m 975.9,670 c -9.3,-5.3 -15.3,-15.3 -19.4,-25.5 -4.1,-10.2 -6.7,-21.1 -11.4,-31 -7.9,-16.9 -21.5,-30.4 -37.2,-39.5 -15.7,-9 -34.2,-11.4 -52,-13 -17.9,1.6 -36.3,3.9 -52,13 -15.7,9 -29.3,22.6 -37.2,39.5 -4.7,10 -7.3,20.8 -11.4,31 -4.1,10.2 -10.1,20.2 -19.4,25.5 3.8,1 6.9,1.5 10.6,0.2 -10.9,28.8 -10.2,62.3 2,90.6 0.5,-8.1 2.5,-16 5.9,-23.3 4.4,11 10.9,21.5 18.2,30.8 -2.6,-14.9 4.8,-28.9 4.6,-44.1 -0.3,-25.2 14.7,-49.9 36.6,-60.4 -1.2,3.4 -1.3,6.9 -3.6,9.7 19.1,-2.5 36.6,-16 44.3,-34.4 0.4,-1 1.5,-4.4 1.5,-5.4 0,1.1 1.1,4.5 1.5,5.4 7.8,18.4 25.2,32 44.3,34.4 -2.3,-2.7 -2.4,-6.3 -3.6,-9.7 21.9,10.5 36.8,35.2 36.6,60.4 -0.2,15.2 7.2,29.2 4.6,44.1 7.2,-9.2 13.7,-19.8 18.2,-30.8 3.3,7.3 5.3,15.3 5.9,23.3 12.2,-28.3 12.9,-61.7 2,-90.6 3.5,1.3 6.6,0.7 10.4,-0.2 z"
         fill="#4e2500"
         id="path26" />
    </g>
  </g>
</svg>
