<?xml version="1.0" encoding="UTF-8" standalone="no"?>
<svg
   xmlns:dc="http://purl.org/dc/elements/1.1/"
   xmlns:cc="http://creativecommons.org/ns#"
   xmlns:rdf="http://www.w3.org/1999/02/22-rdf-syntax-ns#"
   xmlns:svg="http://www.w3.org/2000/svg"
   xmlns="http://www.w3.org/2000/svg"
   xmlns:sodipodi="http://sodipodi.sourceforge.net/DTD/sodipodi-0.dtd"
   xmlns:inkscape="http://www.inkscape.org/namespaces/inkscape"
   width="60mm"
   height="100mm"
   version="1.1"
   viewBox="0 0 60 100"
   id="svg26"
   sodipodi:docname="avatar00.svg"
   inkscape:version="1.0.1 (3bc2e813f5, 2020-09-07)">
  <defs
     id="defs30" />
  <sodipodi:namedview
     pagecolor="#ffffff"
     bordercolor="#666666"
     borderopacity="1"
     objecttolerance="10"
     gridtolerance="10"
     guidetolerance="10"
     inkscape:pageopacity="0"
     inkscape:pageshadow="2"
     inkscape:window-width="1920"
     inkscape:window-height="1018"
     id="namedview28"
     showgrid="false"
     inkscape:zoom="1.4042827"
     inkscape:cx="143.94377"
     inkscape:cy="215.49216"
     inkscape:window-x="-6"
     inkscape:window-y="-6"
     inkscape:window-maximized="1"
     inkscape:current-layer="g22"
     inkscape:document-rotation="0" />
  <metadata
     id="metadata2">
    <rdf:RDF>
      <cc:Work
         rdf:about="">
        <dc:format>image/svg+xml</dc:format>
        <dc:type
           rdf:resource="http://purl.org/dc/dcmitype/StillImage" />
        <dc:title />
      </cc:Work>
    </rdf:RDF>
  </metadata>
  <g
     transform="matrix(0.26458,0,0,0.26458,-275.04536,-143.68036)"
     id="g22">
    <path
       d="m 1234.5,921.2 h -161.7 v -54.1 c 0,-33.1 26.8,-59.9 59.9,-59.9 h 41.9 c 33.1,0 59.9,26.8 59.9,59.9 z"
       fill="#b78000"
       id="path4"
       style="fill:#999999" />
    <path
       d="m 1174.6,807.2 h -0.2 c 23.5,8.8 40.3,31.4 40.3,58 v 56 h 19.8 v -54.1 c 0,-33.1 -26.8,-59.9 -59.9,-59.9 z"
       opacity="0.05"
       id="path6" />
    <path
       d="m 1173.4,817.9 c -11.7,8.7 -27.8,8.7 -39.6,0 v -70.7 h 39.6 z"
       fill="#e8b894"
       id="path8"
       style="fill:#999999" />
    <path
       d="m 1133.9,795.4 c 11.7,6.8 25.2,11 39.6,11.7 v -59.9 h -39.6 z"
       fill="#d1a685"
       id="path10"
       style="fill:#808080" />
    <g
       fill="#e8b894"
       id="g16"
       style="fill:#999999">
      <path
         d="m 1240.4,710.3 c -10.7,0 -19.3,-8.6 -19.3,-19.3 v -8.2 c 0,-10.7 8.6,-19.3 19.3,-19.3 10.7,0 19.3,8.6 19.3,19.3 v 8.2 c 0,10.7 -8.7,19.3 -19.3,19.3 z"
         id="path12"
         style="fill:#999999" />
      <path
         d="m 1066.9,710.3 c -10.7,0 -19.3,-8.6 -19.3,-19.3 v -8.2 c 0,-10.7 8.6,-19.3 19.3,-19.3 10.7,0 19.3,8.6 19.3,19.3 v 8.2 c 0,10.7 -8.7,19.3 -19.3,19.3 z"
         id="path14"
         style="fill:#999999" />
    </g>
    <path
       d="m 1153.6,793.2 c -48.4,0 -87.6,-39.2 -87.6,-87.6 v -37.4 c 0,-48.4 39.2,-87.6 87.6,-87.6 48.4,0 87.6,39.2 87.6,87.6 v 37.4 c 0,48.4 -39.2,87.6 -87.6,87.6 z"
       fill="#ffcaa3"
       id="path18"
       style="fill:#999999" />
    <path
       d="m 1179.8,650.5 c -24.8,15.2 -58.3,15 -82.9,-0.5 -6.7,4.7 -13.4,9.4 -18.8,15.4 -5.4,6.1 -9.5,13.7 -9.8,21.9 -1.7,-0.1 -3.8,-0.2 -5.6,-0.3 4.2,-10.9 -1.1,-22.9 -2.7,-34.5 -1.9,-12.7 0.7,-25.9 7.2,-37 -7.1,-15 -8,-34.5 -1.6,-49.8 4,5.5 9.5,9.8 15.7,12.5 -2.5,-8.8 -3.1,-18.1 -1.7,-27.1 4.3,6.6 11.7,10.9 19.3,12.9 7.7,2 15.7,2 23.6,1.6 14.1,-0.8 28.1,-2.9 42.3,-3.1 14.1,-0.2 28.6,1.7 41.1,8.3 12.5,6.6 22.7,18.6 24.6,32.6 9.1,3.6 15.1,11.3 17.4,20.8 2.3,9.5 1.3,19.4 -0.5,29 -1.8,9.6 -4.3,19.1 -5,28.8 -1.8,0.1 -4.8,0.1 -6.6,0.2 -13.5,-6.5 -24.3,-21.3 -23.1,-36.2 -8.1,7.1 -17.5,12.2 -27.5,16.3 1.6,-5.1 2,-10.6 1.2,-15.9 -2.1,1.2 -4.5,2.8 -6.6,4.1 z"
       fill="#aa5500"
       id="path20"
       style="fill:#999999" />
  </g>
</svg>
